<svg width="16" height="16" viewBox="0 0 16 16" fill="none" xmlns="http://www.w3.org/2000/svg">
<rect x="0.5" y="0.5" width="15" height="15" rx="7.5" fill="#36E32D" fill-opacity="0.49"/>
<rect x="0.5" y="0.5" width="15" height="15" rx="7.5" stroke="#535950"/>
<path d="M11.9152 5.48165C11.9625 5.52884 12.0001 5.58489 12.0257 5.6466C12.0513 5.70831 12.0644 5.77446 12.0644 5.84127C12.0644 5.90808 12.0513 5.97424 12.0257 6.03595C12.0001 6.09766 11.9625 6.15371 11.9152 6.20089L7.34379 10.7723C7.29661 10.8196 7.24056 10.8572 7.17885 10.8828C7.11714 10.9084 7.05098 10.9215 6.98417 10.9215C6.91736 10.9215 6.85121 10.9084 6.7895 10.8828C6.72779 10.8572 6.67174 10.8196 6.62455 10.7723L4.59281 8.74057C4.49743 8.6452 4.44385 8.51584 4.44385 8.38095C4.44385 8.24607 4.49743 8.11671 4.59281 8.02134C4.68818 7.92596 4.81754 7.87238 4.95243 7.87238C5.08731 7.87238 5.21667 7.92596 5.31204 8.02134L6.98417 9.69448L11.196 5.48165C11.2432 5.43435 11.2992 5.39682 11.3609 5.37122C11.4226 5.34561 11.4888 5.33243 11.5556 5.33243C11.6224 5.33243 11.6886 5.34561 11.7503 5.37122C11.812 5.39682 11.868 5.43435 11.9152 5.48165Z" fill="#535950"/>
</svg>
