<svg width="16" height="16" viewBox="0 0 16 16" fill="none" xmlns="http://www.w3.org/2000/svg">
<path d="M1.60001 12C1.43334 11.9111 1.31956 11.7807 1.25868 11.6087C1.19779 11.4367 1.21156 11.2671 1.30001 11.1L4.70001 4.30001C4.7889 4.13334 4.91956 4.01956 5.09201 3.95867C5.26445 3.89778 5.43379 3.91156 5.60001 4.00001C5.76623 4.08845 5.88023 4.21912 5.94201 4.39201C6.00379 4.56489 5.98979 4.73423 5.90001 4.90001L2.50001 11.7C2.41112 11.8667 2.28068 11.9807 2.10868 12.042C1.93668 12.1033 1.76712 12.0893 1.60001 12ZM6.00001 12C5.83334 11.9111 5.71934 11.7807 5.65801 11.6087C5.59668 11.4367 5.61068 11.2671 5.70001 11.1L9.10001 4.30001C9.1889 4.13334 9.31956 4.01956 9.49201 3.95867C9.66445 3.89778 9.83379 3.91156 10 4.00001C10.1662 4.08845 10.2802 4.21912 10.342 4.39201C10.4038 4.56489 10.3898 4.73423 10.3 4.90001L6.90001 11.7C6.81112 11.8667 6.68068 11.9807 6.50868 12.042C6.33668 12.1033 6.16712 12.0893 6.00001 12ZM10.4 12C10.2333 11.9111 10.1196 11.7807 10.0587 11.6087C9.99779 11.4367 10.0116 11.2671 10.1 11.1L13.5 4.30001C13.5889 4.13334 13.7196 4.01956 13.892 3.95867C14.0645 3.89778 14.2338 3.91156 14.4 4.00001C14.5662 4.08845 14.6802 4.21912 14.742 4.39201C14.8038 4.56489 14.7898 4.73423 14.7 4.90001L11.3 11.7C11.2111 11.8667 11.0807 11.9807 10.9087 12.042C10.7367 12.1033 10.5671 12.0893 10.4 12Z" fill="#505759"/>
</svg>
