<svg width="16" height="16" viewBox="0 0 16 16" fill="none" xmlns="http://www.w3.org/2000/svg">
<path d="M7.99999 13.3334C9.41448 13.3334 10.771 12.7715 11.7712 11.7713C12.7714 10.7711 13.3333 9.41451 13.3333 8.00002C13.3333 6.58553 12.7714 5.22898 11.7712 4.22878C10.771 3.22859 9.41448 2.66669 7.99999 2.66669C6.5855 2.66669 5.22895 3.22859 4.22875 4.22878C3.22856 5.22898 2.66666 6.58553 2.66666 8.00002C2.66666 9.41451 3.22856 10.7711 4.22875 11.7713C5.22895 12.7715 6.5855 13.3334 7.99999 13.3334ZM7.99999 5.83335C7.53999 5.83335 7.16666 6.20669 7.16666 6.66669V6.73802C7.16666 6.87063 7.11398 6.99781 7.02021 7.09157C6.92644 7.18534 6.79926 7.23802 6.66666 7.23802C6.53405 7.23802 6.40687 7.18534 6.3131 7.09157C6.21934 6.99781 6.16666 6.87063 6.16666 6.73802V6.66669C6.16666 6.18046 6.35981 5.71414 6.70363 5.37032C7.04744 5.02651 7.51376 4.83335 7.99999 4.83335H8.07732C8.43597 4.83352 8.78597 4.9435 9.08025 5.1485C9.37453 5.35351 9.59898 5.6437 9.72342 5.98007C9.84787 6.31644 9.86633 6.68284 9.77632 7.03002C9.68632 7.37719 9.49218 7.68848 9.21999 7.92202L8.70666 8.36202C8.64225 8.41793 8.59051 8.48692 8.55487 8.5644C8.51923 8.64188 8.50052 8.72607 8.49999 8.81135V9.16669C8.49999 9.2993 8.44731 9.42647 8.35354 9.52024C8.25978 9.61401 8.1326 9.66669 7.99999 9.66669C7.86738 9.66669 7.7402 9.61401 7.64644 9.52024C7.55267 9.42647 7.49999 9.2993 7.49999 9.16669V8.81135C7.49999 8.34669 7.70266 7.90535 8.05532 7.60335L8.56932 7.16335C8.68661 7.06283 8.77028 6.92878 8.80908 6.77927C8.84789 6.62975 8.83996 6.47194 8.78637 6.32706C8.73278 6.18219 8.63609 6.05721 8.50932 5.96894C8.38256 5.88067 8.23179 5.83335 8.07732 5.83335H7.99999ZM8.66666 10.6667C8.66666 10.8435 8.59642 11.0131 8.47139 11.1381C8.34637 11.2631 8.1768 11.3334 7.99999 11.3334C7.82318 11.3334 7.65361 11.2631 7.52859 11.1381C7.40356 11.0131 7.33332 10.8435 7.33332 10.6667C7.33332 10.4899 7.40356 10.3203 7.52859 10.1953C7.65361 10.0703 7.82318 10 7.99999 10C8.1768 10 8.34637 10.0703 8.47139 10.1953C8.59642 10.3203 8.66666 10.4899 8.66666 10.6667Z" fill="#5C5C5C"/>
</svg>
