<svg width="16" height="16" viewBox="0 0 16 16" fill="none" xmlns="http://www.w3.org/2000/svg">
<path d="M5.4872 6.66667H3.17951C3.0435 6.66667 2.91306 6.60184 2.81689 6.48643C2.72072 6.37102 2.66669 6.2145 2.66669 6.05129V3.28206C2.66669 3.11885 2.72072 2.96232 2.81689 2.84691C2.91306 2.73151 3.0435 2.66667 3.17951 2.66667C3.31552 2.66667 3.44595 2.73151 3.54213 2.84691C3.6383 2.96232 3.69233 3.11885 3.69233 3.28206V5.4359H5.4872C5.62321 5.4359 5.75365 5.50074 5.84982 5.61614C5.94599 5.73155 6.00002 5.88808 6.00002 6.05129C6.00002 6.2145 5.94599 6.37102 5.84982 6.48643C5.75365 6.60184 5.62321 6.66667 5.4872 6.66667Z" fill="#505759"/>
<path d="M12.7655 8.89966C12.6149 8.89966 12.4705 8.83995 12.364 8.73367C12.2576 8.6274 12.1977 8.48325 12.1977 8.33295C12.1982 7.33529 11.8686 6.36538 11.2603 5.57372C10.652 4.78207 9.79888 4.21294 8.83335 3.95466C7.86782 3.69637 6.84386 3.76337 5.92038 4.14525C4.9969 4.52714 4.22553 5.20256 3.72597 6.0667C3.65052 6.19678 3.52639 6.29163 3.38087 6.33036C3.23536 6.3691 3.08039 6.34856 2.95005 6.27326C2.81971 6.19796 2.72469 6.07407 2.68587 5.92884C2.64706 5.78361 2.66764 5.62894 2.74309 5.49886C3.36782 4.41885 4.33221 3.57481 5.48665 3.09766C6.64108 2.62052 7.92102 2.53696 9.12789 2.85993C10.3348 3.18291 11.4011 3.89437 12.1615 4.88394C12.9219 5.87352 13.3338 7.08588 13.3334 8.33295C13.3334 8.48325 13.2735 8.6274 13.167 8.73367C13.0606 8.83995 12.9161 8.89966 12.7655 8.89966ZM12.1268 14C11.9762 14 11.8317 13.9403 11.7252 13.834C11.6188 13.7277 11.5589 13.5836 11.5589 13.4333V11.4498H9.5716C9.421 11.4498 9.27658 11.3901 9.17009 11.2838C9.06361 11.1776 9.00378 11.0334 9.00378 10.8831C9.00378 10.7328 9.06361 10.5887 9.17009 10.4824C9.27658 10.3761 9.421 10.3164 9.5716 10.3164H12.1268C12.2773 10.3164 12.4218 10.3761 12.5283 10.4824C12.6347 10.5887 12.6946 10.7328 12.6946 10.8831V13.4333C12.6946 13.5836 12.6347 13.7277 12.5283 13.834C12.4218 13.9403 12.2773 14 12.1268 14Z" fill="#505759"/>
<path d="M7.67812 14C6.17265 13.9986 4.72927 13.4234 3.66474 12.4008C2.60022 11.3782 2.0015 9.99165 2 8.54545C2 8.40079 2.05982 8.26205 2.16631 8.15976C2.27279 8.05747 2.41722 8 2.56781 8C2.71841 8 2.86283 8.05747 2.96932 8.15976C3.0758 8.26205 3.13563 8.40079 3.13563 8.54545C3.13519 9.50571 3.46471 10.4392 4.07303 11.2012C4.68135 11.9632 5.53447 12.511 6.50001 12.7596C7.46554 13.0082 8.48949 12.9437 9.41297 12.5761C10.3365 12.2086 11.1078 11.5585 11.6074 10.7267C11.6447 10.6647 11.6944 10.6104 11.7537 10.5669C11.8129 10.5233 11.8804 10.4914 11.9525 10.4729C12.0245 10.4545 12.0997 10.4498 12.1736 10.4593C12.2475 10.4687 12.3188 10.492 12.3833 10.5279C12.4478 10.5638 12.5044 10.6115 12.5497 10.6684C12.595 10.7253 12.6283 10.7902 12.6475 10.8594C12.6667 10.9286 12.6715 11.0008 12.6617 11.0718C12.6519 11.1428 12.6276 11.2113 12.5903 11.2733C12.091 12.1005 11.3747 12.7876 10.5128 13.266C9.65092 13.7445 8.67355 13.9975 7.67812 14Z" fill="#505759"/>
</svg>
