<svg width="16" height="17" viewBox="0 0 16 17" fill="none" xmlns="http://www.w3.org/2000/svg">
<path fill-rule="evenodd" clip-rule="evenodd" d="M11.78 6.341C11.6394 6.48145 11.4488 6.56034 11.25 6.56034C11.0512 6.56034 10.8606 6.48145 10.72 6.341L8.75 4.371V11.75C8.75 11.9489 8.67098 12.1397 8.53033 12.2803C8.38968 12.421 8.19891 12.5 8 12.5C7.80109 12.5 7.61032 12.421 7.46967 12.2803C7.32902 12.1397 7.25 11.9489 7.25 11.75V4.371L5.28 6.341C5.13783 6.47348 4.94978 6.5456 4.75548 6.54217C4.56118 6.53875 4.37579 6.46003 4.23838 6.32262C4.10097 6.18521 4.02225 5.99982 4.01883 5.80552C4.0154 5.61122 4.08752 5.42318 4.22 5.281L7.47 2.031L8 1.5L8.53 2.03L11.78 5.28C11.8497 5.34965 11.905 5.43235 11.9427 5.52338C11.9804 5.6144 11.9998 5.71197 11.9998 5.8105C11.9998 5.90903 11.9804 6.0066 11.9427 6.09762C11.905 6.18865 11.8497 6.27135 11.78 6.341ZM2.5 10.25C2.5 10.0511 2.42098 9.86032 2.28033 9.71967C2.13968 9.57902 1.94891 9.5 1.75 9.5C1.55109 9.5 1.36032 9.57902 1.21967 9.71967C1.07902 9.86032 1 10.0511 1 10.25V13.5C1 14.0304 1.21071 14.5391 1.58579 14.9142C1.96086 15.2893 2.46957 15.5 3 15.5H13C13.5304 15.5 14.0391 15.2893 14.4142 14.9142C14.7893 14.5391 15 14.0304 15 13.5V10.25C15 10.0511 14.921 9.86032 14.7803 9.71967C14.6397 9.57902 14.4489 9.5 14.25 9.5C14.0511 9.5 13.8603 9.57902 13.7197 9.71967C13.579 9.86032 13.5 10.0511 13.5 10.25V13.5C13.5 13.6326 13.4473 13.7598 13.3536 13.8536C13.2598 13.9473 13.1326 14 13 14H3C2.86739 14 2.74021 13.9473 2.64645 13.8536C2.55268 13.7598 2.5 13.6326 2.5 13.5V10.25Z" fill="#878787"/>
</svg>
